<svg width="28" height="28" viewBox="0 0 28 28" fill="none" xmlns="http://www.w3.org/2000/svg">
  <path d="M6.55672 10.4833C10.1039 6.9361 15.896 6.9361 19.4432 10.4833L19.8961 10.9362C20.0963 11.1364 20.0963 11.4632 19.8961 11.6634L18.4571 13.1025C18.357 13.2026 18.1937 13.2026 18.0935 13.1025L17.4698 12.4787C15.0713 10.0803 10.9286 10.0803 8.53015 12.4787L7.86439 13.1445C7.76424 13.2446 7.60094 13.2446 7.50079 13.1445L6.06177 11.7054C5.86149 11.5052 5.86149 11.1784 6.06177 10.9782L6.55672 10.4833Z" fill="#3B99FC"/>
  <path d="M21.9783 12.9961L23.2858 14.3036C23.4861 14.5039 23.4861 14.8307 23.2858 15.0309L17.8507 20.466C17.6504 20.6663 17.3236 20.6663 17.1234 20.466C17.1234 20.466 17.1234 20.466 17.1234 20.466L13.4257 16.7683C13.3756 16.7182 13.2941 16.7182 13.244 16.7683C13.244 16.7683 13.244 16.7683 13.244 16.7683L9.54629 20.466C9.34601 20.6663 9.01918 20.6663 8.8189 20.466C8.8189 20.466 8.8189 20.466 8.8189 20.466L3.38281 15.0299C3.18253 14.8296 3.18253 14.5028 3.38281 14.3026L4.69128 12.9941C4.89156 12.7938 5.21839 12.7938 5.41867 12.9941L9.11739 16.6928C9.16749 16.7429 9.24894 16.7429 9.29904 16.6928C9.29904 16.6928 9.29904 16.6928 9.29904 16.6928L13.0978 12.9941C13.298 12.7938 13.6249 12.7938 13.8252 12.9941C13.8252 12.9941 13.8252 12.9941 13.8252 12.9941L17.5239 16.6928C17.574 16.7429 17.6554 16.7429 17.7055 16.6928L21.4032 12.9951C21.6035 12.7948 21.9303 12.7948 22.1306 12.9951L21.9783 12.9961Z" fill="#3B99FC"/>
</svg>
