<svg width="28" height="28" viewBox="0 0 28 28" fill="none" xmlns="http://www.w3.org/2000/svg">
  <path d="M24.9133 1.58154L15.6172 9.25175L17.2541 4.84419L24.9133 1.58154Z" fill="#E17726" stroke="#E17726" stroke-width="0.25" stroke-linecap="round" stroke-linejoin="round"/>
  <path d="M3.08691 1.58154L12.2997 9.32458L10.7462 4.84419L3.08691 1.58154Z" fill="#E27625" stroke="#E27625" stroke-width="0.25" stroke-linecap="round" stroke-linejoin="round"/>
  <path d="M21.5909 19.5516L19.1172 23.658L24.4071 25.22L25.9222 19.6367L21.5909 19.5516Z" fill="#E27625" stroke="#E27625" stroke-width="0.25" stroke-linecap="round" stroke-linejoin="round"/>
  <path d="M2.0874 19.6367L3.5903 25.22L8.8802 23.658L6.4187 19.5516L2.0874 19.6367Z" fill="#E27625" stroke="#E27625" stroke-width="0.25" stroke-linecap="round" stroke-linejoin="round"/>
  <path d="M8.60841 12.5252L7.21875 14.9014L12.4475 15.1326L12.2894 9.45557L8.60841 12.5252Z" fill="#E27625" stroke="#E27625" stroke-width="0.25" stroke-linecap="round" stroke-linejoin="round"/>
  <path d="M19.3922 12.5248L15.6501 9.3823L15.6172 15.1322L20.8459 14.901L19.3922 12.5248Z" fill="#E27625" stroke="#E27625" stroke-width="0.25" stroke-linecap="round" stroke-linejoin="round"/>
  <path d="M8.88008 23.6586L12.1313 22.0364L9.38599 19.6724L8.88008 23.6586Z" fill="#E27625" stroke="#E27625" stroke-width="0.25" stroke-linecap="round" stroke-linejoin="round"/>
  <path d="M15.8687 22.0364L19.1199 23.6586L18.614 19.6724L15.8687 22.0364Z" fill="#E27625" stroke="#E27625" stroke-width="0.25" stroke-linecap="round" stroke-linejoin="round"/>
  <path d="M19.1199 23.6583L15.8687 22.0361L16.1115 24.2421L16.0786 25.1559L19.1199 23.6583Z" fill="#D5BFB2" stroke="#D5BFB2" stroke-width="0.25" stroke-linecap="round" stroke-linejoin="round"/>
  <path d="M8.88008 23.6583L11.9214 25.1559L11.9006 24.2421L12.1313 22.0361L8.88008 23.6583Z" fill="#D5BFB2" stroke="#D5BFB2" stroke-width="0.25" stroke-linecap="round" stroke-linejoin="round"/>
  <path d="M11.9727 18.1258L9.30762 17.3055L11.1563 16.3794L11.9727 18.1258Z" fill="#233447" stroke="#233447" stroke-width="0.25" stroke-linecap="round" stroke-linejoin="round"/>
  <path d="M16.0273 18.1258L16.8437 16.3794L18.6924 17.3055L16.0273 18.1258Z" fill="#233447" stroke="#233447" stroke-width="0.25" stroke-linecap="round" stroke-linejoin="round"/>
  <path d="M8.87972 23.658L9.40845 19.5516L6.41821 19.6367L8.87972 23.658Z" fill="#CC6228" stroke="#CC6228" stroke-width="0.25" stroke-linecap="round" stroke-linejoin="round"/>
  <path d="M18.5918 19.5516L19.1205 23.658L21.582 19.6367L18.5918 19.5516Z" fill="#CC6228" stroke="#CC6228" stroke-width="0.25" stroke-linecap="round" stroke-linejoin="round"/>
  <path d="M20.8456 14.9011L15.6169 15.1323L16.0274 18.1265L16.8438 16.3801L18.6925 17.3062L20.8456 14.9011Z" fill="#CC6228" stroke="#CC6228" stroke-width="0.25" stroke-linecap="round" stroke-linejoin="round"/>
  <path d="M9.3077 17.3062L11.1564 16.3801L11.9728 18.1265L12.3833 15.1323L7.15455 14.9011L9.3077 17.3062Z" fill="#CC6228" stroke="#CC6228" stroke-width="0.25" stroke-linecap="round" stroke-linejoin="round"/>
  <path d="M7.15455 14.9011L9.38596 19.6723L9.3077 17.3062L7.15455 14.9011Z" fill="#E27525" stroke="#E27525" stroke-width="0.25" stroke-linecap="round" stroke-linejoin="round"/>
  <path d="M18.6921 17.3062L18.6138 19.6723L20.8452 14.9011L18.6921 17.3062Z" fill="#E27525" stroke="#E27525" stroke-width="0.25" stroke-linecap="round" stroke-linejoin="round"/>
  <path d="M12.3828 15.1323L11.9723 18.1265L12.4905 21.7068L12.6486 17.0749L12.3828 15.1323Z" fill="#E27525" stroke="#E27525" stroke-width="0.25" stroke-linecap="round" stroke-linejoin="round"/>
  <path d="M15.617 15.1323L15.3633 17.0627L15.5092 21.7068L16.0274 18.1265L15.617 15.1323Z" fill="#E27525" stroke="#E27525" stroke-width="0.25" stroke-linecap="round" stroke-linejoin="round"/>
  <path d="M16.0273 18.1263L15.5091 21.7066L15.8686 22.0364L18.6139 19.6724L18.6922 17.3063L16.0273 18.1263Z" fill="#F5841F" stroke="#F5841F" stroke-width="0.25" stroke-linecap="round" stroke-linejoin="round"/>
  <path d="M9.30762 17.3063L9.38588 19.6724L12.1312 22.0364L12.4906 21.7066L11.9725 18.1263L9.30762 17.3063Z" fill="#F5841F" stroke="#F5841F" stroke-width="0.25" stroke-linecap="round" stroke-linejoin="round"/>
  <path d="M16.0784 25.1558L16.1114 24.242L15.8862 24.051H12.1136L11.9005 24.242L11.9213 25.1558L8.87988 23.6582L9.90158 24.4785L12.072 26H15.9278L18.0983 24.4785L19.1199 23.6582L16.0784 25.1558Z" fill="#C0AC9D" stroke="#C0AC9D" stroke-width="0.25" stroke-linecap="round" stroke-linejoin="round"/>
  <path d="M15.8688 22.0364L15.5094 21.7065H12.4907L12.1312 22.0364L11.9004 24.2423L12.1135 24.0513H15.8861L16.1113 24.2423L15.8688 22.0364Z" fill="#161616" stroke="#161616" stroke-width="0.25" stroke-linecap="round" stroke-linejoin="round"/>
  <path d="M25.3205 9.84212L26.1369 5.623L24.9133 1.58154L15.8691 9.06641L19.3924 12.5252L24.3117 14.0476L25.3857 12.793L24.9133 12.4632L25.6626 11.8038L25.0837 11.3788L25.833 10.8153L25.3205 9.84212Z" fill="#763E1A" stroke="#763E1A" stroke-width="0.25" stroke-linecap="round" stroke-linejoin="round"/>
  <path d="M1.86328 5.623L2.67969 9.84212L2.15499 10.8153L2.9164 11.3788L2.33749 11.8038L3.08676 12.4632L2.61436 12.793L3.68834 14.0476L8.60769 12.5252L12.1309 9.06641L3.08676 1.58154L1.86328 5.623Z" fill="#763E1A" stroke="#763E1A" stroke-width="0.25" stroke-linecap="round" stroke-linejoin="round"/>
  <path d="M24.3119 14.0477L19.3926 12.5254L20.8463 14.9015L18.6149 19.6727L21.5821 19.6364H25.9134L24.3119 14.0477Z" fill="#F5841F" stroke="#F5841F" stroke-width="0.25" stroke-linecap="round" stroke-linejoin="round"/>
  <path d="M8.60765 12.5254L3.68829 14.0477L2.0874 19.6364H6.41873L9.38593 19.6727L7.1545 14.9015L8.60765 12.5254Z" fill="#F5841F" stroke="#F5841F" stroke-width="0.25" stroke-linecap="round" stroke-linejoin="round"/>
  <path d="M15.6172 15.1323L15.8692 9.06645L17.2539 4.84424H10.7461L12.0996 9.06645L12.383 15.1323L12.4786 17.0871L12.4907 21.7066H15.5093L15.5214 17.0871L15.6172 15.1323Z" fill="#F5841F" stroke="#F5841F" stroke-width="0.25" stroke-linecap="round" stroke-linejoin="round"/>
</svg>
