<svg width="28" height="28" viewBox="0 0 28 28" fill="none" xmlns="http://www.w3.org/2000/svg">
  <circle cx="14" cy="14" r="14" fill="#0052FF"/>
  <path d="M14.0001 23.3333C19.1547 23.3333 23.3334 19.1546 23.3334 14C23.3334 8.84536 19.1547 4.66667 14.0001 4.66667C8.84542 4.66667 4.66675 8.84536 4.66675 14C4.66675 19.1546 8.84542 23.3333 14.0001 23.3333Z" fill="#0052FF"/>
  <path d="M11.6666 11.0833C11.6666 10.3088 12.2921 9.68333 13.0666 9.68333H14.9333C15.7079 9.68333 16.3333 10.3088 16.3333 11.0833V16.9167C16.3333 17.6912 15.7079 18.3167 14.9333 18.3167H13.0666C12.2921 18.3167 11.6666 17.6912 11.6666 16.9167V11.0833Z" fill="white"/>
</svg>
