<?xml version="1.0" encoding="UTF-8"?>
<svg width="32px" height="32px" viewBox="0 0 32 32" version="1.1" xmlns="http://www.w3.org/2000/svg">
  <circle cx="16" cy="16" r="15" fill="#1c2237" stroke="#3b82f6" stroke-width="2"/>
  <path d="M16.9,22.5c-0.3,0.1-0.6,0.2-0.9,0.2c-0.3,0-0.6,0.1-1,0.1c-1.3,0-2.3-0.3-3-0.9c-0.7-0.6-1-1.5-1-2.7h2.8
    c0,0.5,0.1,0.8,0.3,1c0.2,0.2,0.5,0.3,0.9,0.3c0.4,0,0.6-0.1,0.8-0.2c0.2-0.2,0.3-0.4,0.3-0.7c0-0.3-0.1-0.5-0.4-0.7
    c-0.3-0.2-0.7-0.3-1.3-0.5c-0.6-0.2-1.1-0.3-1.5-0.5c-0.4-0.2-0.8-0.4-1.1-0.8c-0.3-0.3-0.6-0.7-0.7-1.1C10,15.4,9.9,14.9,9.9,14.3
    c0-1,0.3-1.9,1-2.6c0.7-0.7,1.6-1.1,2.9-1.2V9h2v1.5c1.1,0.1,2,0.5,2.6,1.2c0.6,0.7,0.9,1.6,0.9,2.7h-2.8c0-0.5-0.1-0.8-0.3-1
    c-0.2-0.2-0.4-0.3-0.7-0.3c-0.3,0-0.5,0.1-0.7,0.3c-0.2,0.2-0.2,0.4-0.2,0.7c0,0.3,0.1,0.5,0.4,0.7c0.3,0.2,0.7,0.3,1.3,0.5
    c0.6,0.2,1.1,0.3,1.5,0.5c0.4,0.2,0.8,0.4,1.1,0.8c0.3,0.3,0.6,0.7,0.7,1.1c0.2,0.4,0.3,0.9,0.3,1.5c0,1-0.3,1.9-1,2.6
    c-0.7,0.7-1.6,1.1-2.8,1.2V25h-2v-2.5H16.9z" fill="white"/>
</svg>