<svg width="512" height="512" viewBox="0 0 512 512" fill="none" xmlns="http://www.w3.org/2000/svg">
  <!-- Fondo violeta principal -->
  <rect width="512" height="512" rx="100" fill="hsl(270 84% 57%)"/>
  
  <!-- Símbolo de liquidez (gota estilizada) -->
  <path d="M256 90C256 90 160 200 160 300C160 356.9 203.1 400 256 400C308.9 400 352 356.9 352 300C352 200 256 90 256 90Z" fill="white" opacity="0.9"/>
  
  <!-- Línea curva representando gráfico de rendimiento -->
  <path d="M120 320C120 320 180 280 230 310C280 340 320 260 380 240" stroke="white" stroke-width="16" stroke-linecap="round" stroke-linejoin="round" fill="none"/>
  
  <!-- Símbolo de dólar pequeño en el centro -->
  <path d="M256 230C266 230 276 232 284 236C292 240 298 245 302 251C306 257 308 264 308 271C308 278 306 284 303 289C300 294 296 298 291 302C286 306 281 309 276 311C271 314 267 316 264 319C261 322 259 325 259 329H236C236 322 237 317 240 312C243 307 246 303 250 300C254 297 258 294 262 292C266 290 269 288 272 285C275 282 277 278 277 273C277 268 275 264 271 261C267 258 262 256 255 256C249 256 245 257 241 259C237 261 234 264 232 268C230 272 229 276 228 281H202C202 270 205 260 211 253C217 246 225 240 234 236C243 232 254 230 256 230Z" fill="white"/>
  <path d="M251 350C257 350 262 351 264 354C266 357 268 360 268 365C268 369 266 373 263 376C260 379 255 380 249 380C243 380 238 379 235 376C232 373 230 369 230 364C230 359 232 355 235 353C238 351 244 350 251 350Z" fill="white"/>
</svg>