<?xml version="1.0" encoding="UTF-8"?>
<svg width="1200" height="630" viewBox="0 0 1200 630" xmlns="http://www.w3.org/2000/svg">
  <rect width="1200" height="630" fill="#1e293b" />
  
  <!-- Background grid -->
  <defs>
    <pattern id="smallGrid" width="10" height="10" patternUnits="userSpaceOnUse">
      <path d="M 10 0 L 0 0 0 10" fill="none" stroke="#4338ca" stroke-width="0.5" opacity="0.1" />
    </pattern>
    <pattern id="grid" width="100" height="100" patternUnits="userSpaceOnUse">
      <rect width="100" height="100" fill="url(#smallGrid)" />
      <path d="M 100 0 L 0 0 0 100" fill="none" stroke="#4338ca" stroke-width="1" opacity="0.2" />
    </pattern>
  </defs>
  <rect width="1200" height="630" fill="url(#grid)" />
  
  <!-- Abstract Algorithm visualization -->
  <g transform="translate(750, 315)">
    <!-- Central node -->
    <circle cx="0" cy="0" r="60" fill="#4338ca" opacity="0.7" />
    
    <!-- Connecting nodes -->
    <circle cx="-150" cy="-100" r="25" fill="#4338ca" opacity="0.5" />
    <circle cx="120" cy="-120" r="30" fill="#4338ca" opacity="0.5" />
    <circle cx="100" cy="130" r="40" fill="#4338ca" opacity="0.5" />
    <circle cx="-130" cy="110" r="35" fill="#4338ca" opacity="0.5" />
    
    <!-- Connection lines -->
    <line x1="0" y1="0" x2="-150" y2="-100" stroke="#4338ca" stroke-width="2" opacity="0.6" />
    <line x1="0" y1="0" x2="120" y2="-120" stroke="#4338ca" stroke-width="2" opacity="0.6" />
    <line x1="0" y1="0" x2="100" y2="130" stroke="#4338ca" stroke-width="2" opacity="0.6" />
    <line x1="0" y1="0" x2="-130" y2="110" stroke="#4338ca" stroke-width="2" opacity="0.6" />
    
    <!-- Secondary connections -->
    <line x1="-150" y1="-100" x2="120" y2="-120" stroke="#4338ca" stroke-width="1" opacity="0.4" stroke-dasharray="5,5" />
    <line x1="120" y1="-120" x2="100" y2="130" stroke="#4338ca" stroke-width="1" opacity="0.4" stroke-dasharray="5,5" />
    <line x1="100" y1="130" x2="-130" y2="110" stroke="#4338ca" stroke-width="1" opacity="0.4" stroke-dasharray="5,5" />
    <line x1="-130" y1="110" x2="-150" y2="-100" stroke="#4338ca" stroke-width="1" opacity="0.4" stroke-dasharray="5,5" />
  </g>
  
  <!-- Text content -->
  <g transform="translate(150, 200)">
    <text font-family="Arial, sans-serif" font-size="72" font-weight="bold">
      <tspan x="0" y="0" fill="#ffffff">Way</tspan>
      <tspan x="145" y="0" fill="#4338ca">Bank</tspan>
    </text>
    <text x="0" y="80" font-family="Arial, sans-serif" font-size="36" fill="#94a3b8">
      Advanced Algorithm
    </text>
    <text x="0" y="130" font-family="Arial, sans-serif" font-size="28" fill="#cbd5e1">
      Intelligent Optimization for Uniswap V4
    </text>
    <rect x="0" y="160" width="150" height="8" fill="#4338ca" rx="4" />
    
    <!-- Feature points -->
    <g transform="translate(0, 200)">
      <circle cx="10" cy="10" r="6" fill="#4338ca" />
      <text x="30" y="15" font-family="Arial, sans-serif" font-size="20" fill="#94a3b8">
        Dynamic range optimization
      </text>
      
      <circle cx="10" cy="50" r="6" fill="#4338ca" />
      <text x="30" y="55" font-family="Arial, sans-serif" font-size="20" fill="#94a3b8">
        Impermanent loss protection
      </text>
      
      <circle cx="10" cy="90" r="6" fill="#4338ca" />
      <text x="30" y="95" font-family="Arial, sans-serif" font-size="20" fill="#94a3b8">
        Volatility prediction models
      </text>
    </g>
  </g>
  
  <!-- Bottom information -->
  <text x="150" y="580" font-family="Arial, sans-serif" font-size="24" fill="#94a3b8">
    www.waybank.info/algorithm
  </text>
</svg>