<?xml version="1.0" encoding="UTF-8"?>
<svg xmlns="http://www.w3.org/2000/svg" viewBox="0 0 900 600">
  <rect width="900" height="600" fill="#fff"/>
  <g transform="translate(450, 300)">
    <circle r="150" fill="#fff"/>
    <path d="M 0,-75 A 75,75 0 0 1 0,75 A 75,75 0 0 0 0,-75" fill="#c60c30"/>
    <path d="M 0,-75 A 75,75 0 0 0 0,75 A 75,75 0 0 1 0,-75" fill="#003478"/>
  </g>
  <g transform="translate(450, 300)">
    <g transform="translate(-180, -180)">
      <rect width="60" height="20" fill="#000" transform="rotate(35)"/>
      <rect width="60" height="20" fill="#000" transform="translate(10, 10) rotate(125)"/>
      <rect width="60" height="20" fill="#000" transform="translate(0, 30) rotate(35)"/>
    </g>
    <g transform="translate(-180, 180)">
      <rect width="60" height="20" fill="#000" transform="rotate(-35)"/>
      <rect width="60" height="20" fill="#000" transform="translate(10, -10) rotate(-125)"/>
      <rect width="60" height="20" fill="#000" transform="translate(0, -30) rotate(-35)"/>
    </g>
    <g transform="translate(180, -180)">
      <rect width="60" height="20" fill="#000" transform="rotate(-35)"/>
      <rect width="60" height="20" fill="#000" transform="translate(10, -10) rotate(-125)"/>
      <rect width="60" height="20" fill="#000" transform="translate(0, -30) rotate(-35)"/>
    </g>
    <g transform="translate(180, 180)">
      <rect width="60" height="20" fill="#000" transform="rotate(35)"/>
      <rect width="60" height="20" fill="#000" transform="translate(10, 10) rotate(125)"/>
      <rect width="60" height="20" fill="#000" transform="translate(0, 30) rotate(35)"/>
    </g>
  </g>
</svg>