<?xml version="1.0" encoding="UTF-8"?>
<svg xmlns="http://www.w3.org/2000/svg" viewBox="0 0 900 600">
  <rect width="900" height="600" fill="#006c35"/>
  <g transform="translate(450, 300) scale(1.2)">
    <path d="M -150,40 C -150,40 -30,40 0,40 C 30,40 150,40 150,40 L 150,-40 C 150,-40 30,-40 0,-40 C -30,-40 -150,-40 -150,-40 Z" fill="#fff"/>
    <path d="M -100,0 C -90,20 -70,25 -50,15 C -50,15 -60,-5 -45,-15 C -30,-25 -10,-15 -5,0 C 0,15 10,20 25,15 C 40,10 45,-5 40,-15 C 35,-25 20,-25 10,-15 L 15,-5 C 15,-5 30,-15 45,-5 C 60,5 60,25 40,30 L 30,25" stroke="#006c35" stroke-width="5" fill="none"/>
  </g>
</svg>