<?xml version="1.0" encoding="UTF-8"?>
<svg xmlns="http://www.w3.org/2000/svg" viewBox="0 0 900 600">
  <rect width="900" height="600" fill="#de2910"/>
  <g fill="#ffde00">
    <path d="M 225,75 L 262,188 L 380,188 L 285,256 L 322,370 L 225,300 L 128,370 L 165,256 L 70,188 L 188,188 Z"/>
    <path d="M 380,150 L 393,200 L 445,200 L 403,232 L 416,282 L 380,245 L 344,282 L 357,232 L 315,200 L 367,200 Z"/>
    <path d="M 415,240 L 428,290 L 480,290 L 438,322 L 451,372 L 415,335 L 379,372 L 392,322 L 350,290 L 402,290 Z"/>
    <path d="M 415,60 L 428,110 L 480,110 L 438,142 L 451,192 L 415,155 L 379,192 L 392,142 L 350,110 L 402,110 Z"/>
    <path d="M 480,150 L 493,200 L 545,200 L 503,232 L 516,282 L 480,245 L 444,282 L 457,232 L 415,200 L 467,200 Z"/>
  </g>
</svg>