<?xml version="1.0" encoding="UTF-8"?>
<svg width="24px" height="24px" viewBox="0 0 24 24" version="1.1" xmlns="http://www.w3.org/2000/svg">
  <g>
    <path fill="#8247E5" d="M12,0 C5.37225,0 0,5.37225 0,12 C0,18.6278 5.37225,24 12,24 C18.6278,24 24,18.6278 24,12 C24,5.37225 18.6278,0 12,0 Z" />
    <path fill="#FFFFFF" d="M15.8571,9.375 C15.5357,9.1875 15.1259,9.1875 14.7857,9.375 L12.4554,10.7143 L10.875,11.6518 L8.54464,13.0134 C8.22321,13.2009 7.81339,13.2009 7.47321,13.0134 L5.67857,11.9464 C5.35714,11.7589 5.15625,11.4107 5.15625,11.0357 V8.91964 C5.15625,8.54464 5.33929,8.19643 5.67857,8.00893 L7.45536,6.95982 C7.77679,6.77232 8.1866,6.77232 8.52679,6.95982 L10.3036,8.02679 C10.625,8.21429 10.8259,8.5625 10.8259,8.9375 V10.2768 L12.4554,9.33036 V7.97321 C12.4554,7.59821 12.2723,7.25 11.933,7.0625 L8.54464,5.09821 C8.22321,4.91071 7.81339,4.91071 7.47321,5.09821 L4.05357,7.0625 C3.71429,7.25 3.53125,7.59821 3.53125,7.97321 V11.9821 C3.53125,12.3571 3.71429,12.7054 4.05357,12.8929 L7.47321,14.8571 C7.79464,15.0446 8.20446,15.0446 8.54464,14.8571 L10.875,13.5179 L12.4554,12.5625 L14.7857,11.2232 C15.1071,11.0357 15.517,11.0357 15.8571,11.2232 L17.625,12.2723 C17.9464,12.4598 18.1473,12.808 18.1473,13.183 V15.2991 C18.1473,15.6741 17.9643,16.0223 17.625,16.2098 L15.8571,17.2589 C15.5357,17.4464 15.1259,17.4464 14.7857,17.2589 L13.0179,16.2098 C12.6964,16.0223 12.4955,15.6741 12.4955,15.2991 V13.9598 L10.8661,14.9062 V16.2634 C10.8661,16.6384 11.0491,16.9866 11.3884,17.1741 L14.8079,19.1384 C15.1295,19.3259 15.5393,19.3259 15.8795,19.1384 L19.2991,17.1741 C19.6205,16.9866 19.8214,16.6384 19.8214,16.2634 V12.2545 C19.8214,11.8795 19.6384,11.5313 19.2991,11.3438 L15.8571,9.375 Z" />
  </g>
</svg>